<svg xmlns="http://www.w3.org/2000/svg" xmlns:xlink="http://www.w3.org/1999/xlink" width="100%" zoomAndPan="magnify" viewBox="0 0 375 374.999991" height="100%" preserveAspectRatio="xMidYMid meet" version="1.0"><defs><g/></defs><path fill="#f15e22" d="M 136.722656 213.5625 C 136.390625 213.519531 136.039062 213.519531 135.6875 213.519531 C 129.316406 213.582031 122.964844 213.644531 116.59375 213.707031 C 111.152344 213.746094 105.730469 213.808594 100.292969 213.828125 C 98.738281 213.828125 98.472656 213.539062 98.636719 212.113281 L 91.066406 212.113281 C 91.066406 212.136719 91.066406 212.136719 91.066406 212.15625 L 62.515625 212.15625 L 63.445312 212.941406 C 65.828125 214.925781 68.824219 216.019531 71.910156 216.019531 L 90.589844 216.019531 C 90.589844 216.105469 90.570312 216.1875 90.546875 216.269531 C 90.300781 218.273438 91.066406 219.183594 93.113281 219.308594 C 94.230469 219.371094 95.367188 219.328125 96.484375 219.308594 C 108.378906 219.226562 120.277344 219.164062 132.171875 219.082031 C 134.40625 219.058594 136.453125 218.542969 137.941406 216.746094 C 139.183594 215.277344 138.585938 213.828125 136.722656 213.5625 Z M 136.722656 213.5625 " fill-opacity="1" fill-rule="nonzero"/><path fill="#f15e22" d="M 160.242188 184.96875 C 159.210938 184.660156 113.34375 185.15625 104.492188 185.15625 C 102.339844 185.15625 102.257812 185.050781 102.734375 182.945312 C 103.105469 181.226562 102.585938 180.378906 100.933594 180.378906 C 95.304688 180.339844 89.679688 180.296875 84.050781 180.546875 C 82.253906 180.628906 80.90625 181.558594 79.957031 183.046875 C 79.210938 184.203125 79.519531 185.074219 80.761719 185.632812 C 81.507812 185.960938 82.273438 185.984375 83.058594 185.984375 C 86.492188 185.960938 89.90625 185.941406 93.339844 185.921875 C 93.816406 185.921875 94.539062 185.691406 94.457031 186.625 C 94.3125 188.214844 94.1875 189.828125 93.941406 191.417969 C 93.898438 191.730469 93.859375 192.019531 93.816406 192.328125 L 101.058594 192.328125 C 101.160156 191.378906 101.472656 190.136719 102.628906 190.136719 C 110.902344 190.136719 154.367188 189.972656 154.367188 189.972656 C 154.367188 189.972656 151.535156 194.105469 149.609375 194.519531 L 93.464844 194.519531 C 93.464844 194.519531 93.464844 194.542969 93.464844 194.542969 L 47.664062 194.542969 L 48.59375 195.328125 C 50.972656 197.3125 53.972656 198.40625 57.054688 198.40625 L 92.886719 198.40625 C 92.761719 199.359375 92.617188 200.308594 92.492188 201.261719 L 100.042969 201.261719 C 100.085938 200.992188 100.148438 200.660156 100.269531 200.246094 C 100.539062 199.277344 101.265625 199.460938 101.90625 199.441406 C 108.402344 199.359375 146.671875 199.214844 146.671875 199.214844 C 145.742188 200.742188 143.859375 202.871094 141.8125 203.472656 L 55.070312 203.472656 L 56 204.257812 C 58.378906 206.242188 61.378906 207.339844 64.460938 207.339844 L 91.6875 207.339844 C 91.582031 208.207031 91.457031 209.054688 91.355469 209.921875 L 98.90625 209.921875 C 98.925781 209.714844 98.945312 209.488281 98.96875 209.28125 C 99.03125 208.476562 99.445312 208.019531 100.25 207.957031 C 100.890625 207.917969 101.511719 207.898438 102.152344 207.898438 C 114.546875 207.8125 126.917969 207.75 139.308594 207.667969 C 143.488281 207.648438 147.023438 206.285156 149.753906 202.933594 C 152.050781 200.144531 154.554688 197.519531 156.871094 194.726562 C 158.527344 192.742188 160.574219 191.066406 161.816406 188.753906 C 162.746094 186.976562 162.148438 185.527344 160.242188 184.96875 Z M 160.242188 184.96875 " fill-opacity="1" fill-rule="nonzero"/><path fill="#f15e22" d="M 99.578125 222.46875 C 99.683594 222.691406 99.753906 222.925781 99.792969 223.175781 C 99.828125 223.421875 99.832031 223.679688 99.796875 223.949219 C 99.765625 224.214844 99.699219 224.484375 99.597656 224.757812 C 99.496094 225.03125 99.363281 225.304688 99.199219 225.574219 C 99.035156 225.84375 98.839844 226.109375 98.617188 226.363281 C 98.394531 226.621094 98.144531 226.867188 97.871094 227.097656 C 97.601562 227.332031 97.308594 227.550781 96.996094 227.75 C 96.683594 227.949219 96.359375 228.132812 96.019531 228.292969 C 95.679688 228.453125 95.335938 228.589844 94.980469 228.703125 C 94.628906 228.816406 94.277344 228.90625 93.921875 228.96875 C 93.570312 229.03125 93.222656 229.066406 92.882812 229.078125 C 92.542969 229.089844 92.214844 229.070312 91.902344 229.027344 C 91.585938 228.984375 91.292969 228.914062 91.015625 228.820312 C 90.742188 228.722656 90.488281 228.601562 90.261719 228.460938 C 90.035156 228.316406 89.839844 228.152344 89.667969 227.964844 C 89.5 227.777344 89.363281 227.574219 89.257812 227.351562 C 89.152344 227.128906 89.082031 226.894531 89.042969 226.644531 C 89.007812 226.394531 89.003906 226.136719 89.035156 225.871094 C 89.070312 225.605469 89.136719 225.335938 89.238281 225.0625 C 89.335938 224.785156 89.46875 224.515625 89.636719 224.246094 C 89.800781 223.972656 89.996094 223.710938 90.21875 223.453125 C 90.441406 223.199219 90.6875 222.953125 90.960938 222.71875 C 91.234375 222.484375 91.527344 222.269531 91.839844 222.070312 C 92.152344 221.867188 92.476562 221.6875 92.816406 221.527344 C 93.152344 221.367188 93.5 221.230469 93.851562 221.117188 C 94.207031 221.003906 94.558594 220.914062 94.910156 220.851562 C 95.265625 220.789062 95.613281 220.75 95.953125 220.742188 C 96.292969 220.730469 96.621094 220.746094 96.933594 220.792969 C 97.246094 220.835938 97.542969 220.90625 97.816406 221 C 98.09375 221.09375 98.34375 221.214844 98.570312 221.359375 C 98.796875 221.503906 98.996094 221.667969 99.167969 221.855469 C 99.335938 222.042969 99.472656 222.246094 99.578125 222.46875 Z M 99.578125 222.46875 " fill-opacity="1" fill-rule="nonzero"/><path fill="#f15e22" d="M 121.578125 221.519531 C 118.722656 222.863281 117.132812 225.46875 118.019531 227.351562 C 118.910156 229.210938 121.929688 229.644531 124.785156 228.28125 C 127.640625 226.9375 129.234375 224.332031 128.34375 222.449219 C 127.453125 220.589844 124.433594 220.175781 121.578125 221.519531 Z M 121.578125 221.519531 " fill-opacity="1" fill-rule="nonzero"/><path fill="#f15e22" d="M 171.25 159.171875 C 161.195312 149.503906 143.421875 138.84375 138.339844 135.621094 C 138.328125 135.59375 138.300781 135.578125 138.285156 135.550781 C 137.972656 135.359375 137.644531 135.179688 137.328125 134.988281 C 137.042969 134.808594 136.890625 134.710938 136.890625 134.710938 L 136.90625 134.738281 C 131.304688 131.421875 125.253906 128.457031 119.214844 125.691406 C 121.742188 133.335938 126.125 138.429688 133.777344 143.304688 L 133.859375 143.359375 C 136.019531 144.726562 138.203125 146.117188 140.828125 147.507812 C 141.347656 147.769531 141.878906 148.03125 142.34375 148.292969 C 129.855469 144.035156 117.152344 140.578125 103.3125 139.285156 C 112.546875 149.984375 128.597656 154.613281 147.480469 156.953125 L 147.835938 156.871094 C 143.328125 160.207031 143.765625 164.019531 145.828125 168.207031 C 144.925781 167.90625 144.308594 167.710938 143.710938 167.503906 C 137.890625 165.496094 131.808594 164.253906 125.308594 164.421875 C 118.832031 164.585938 113.640625 166.625 110.457031 171.25 C 108.597656 173.921875 107.859375 176.691406 107.859375 179.472656 L 158.082031 179.472656 C 157.902344 178.097656 157.535156 176.707031 156.933594 175.285156 C 158.011719 175.574219 158.886719 175.824219 159.789062 176.042969 C 161.988281 176.582031 164.203125 176.898438 166.539062 176.429688 C 169.433594 175.851562 172.003906 174.625 174.148438 172.988281 C 175.566406 171.898438 177.480469 170.589844 178.054688 169.046875 C 179.257812 165.851562 171.265625 159.1875 171.25 159.171875 Z M 167.441406 162.863281 C 166.867188 163.925781 165.457031 164.363281 164.296875 163.839844 C 163.136719 163.316406 162.65625 162.039062 163.21875 160.964844 C 163.792969 159.902344 165.199219 159.460938 166.359375 159.984375 C 167.535156 160.507812 168.011719 161.804688 167.441406 162.863281 Z M 167.441406 162.863281 " fill-opacity="1" fill-rule="nonzero"/><g fill="#f15e22" fill-opacity="1"><g transform="translate(173.408225, 206.735406)"><g><path d="M 8.117188 -21.761719 L 1.070312 -21.761719 L 1.070312 0 L 8.117188 0 L 8.117188 -5.769531 L 11.710938 -5.769531 L 11.710938 0 L 18.757812 0 L 18.757812 -21.761719 L 11.710938 -21.761719 L 11.710938 -11.710938 L 8.117188 -11.710938 Z M 8.117188 -21.761719 "/></g></g></g><g fill="#f15e22" fill-opacity="1"><g transform="translate(192.886091, 206.735406)"><g><path d="M 8.152344 -21.761719 L 1.105469 -21.761719 L 1.105469 -8.808594 C 1.105469 -5.628906 1.796875 -3.28125 3.246094 -1.761719 C 4.664062 -0.207031 7.011719 0.550781 10.292969 0.550781 C 13.542969 0.585938 15.890625 -0.171875 17.339844 -1.726562 C 18.792969 -3.246094 19.519531 -5.628906 19.519531 -8.808594 L 19.519531 -21.761719 L 12.472656 -21.761719 L 12.472656 -9.363281 C 12.472656 -8.945312 12.4375 -8.53125 12.402344 -8.082031 C 12.367188 -7.601562 12.296875 -7.183594 12.160156 -6.769531 C 12.023438 -6.355469 11.78125 -6.046875 11.503906 -5.769531 C 11.226562 -5.492188 10.8125 -5.390625 10.292969 -5.390625 C 9.777344 -5.390625 9.363281 -5.527344 9.085938 -5.804688 C 8.808594 -6.078125 8.601562 -6.390625 8.464844 -6.804688 C 8.324219 -7.183594 8.222656 -7.601562 8.1875 -8.082031 C 8.152344 -8.566406 8.152344 -8.980469 8.152344 -9.363281 Z M 8.152344 -21.761719 "/></g></g></g><g fill="#f15e22" fill-opacity="1"><g transform="translate(213.503617, 206.735406)"><g><path d="M 1.210938 -21.761719 L 1.210938 0 L 8.257812 0 L 8.257812 -21.761719 Z M 1.210938 -21.761719 "/></g></g></g><g fill="#f15e22" fill-opacity="1"><g transform="translate(223.311626, 206.735406)"><g><path d="M 13.230469 0 L 13.230469 -15.820312 L 19.136719 -15.820312 L 19.3125 -21.761719 L 0.207031 -21.761719 L 0 -15.820312 L 6.078125 -15.820312 L 6.078125 0 Z M 13.230469 0 "/></g></g></g><g fill="#000000" fill-opacity="1"><g transform="translate(164.666977, 232.169437)"><g><path d="M 8.59375 0.3125 C 7.050781 0.3125 5.707031 0.03125 4.5625 -0.53125 C 3.425781 -1.101562 2.546875 -1.898438 1.921875 -2.921875 C 1.304688 -3.941406 1 -5.109375 1 -6.421875 C 1 -8.160156 1.398438 -9.726562 2.203125 -11.125 C 3.015625 -12.53125 4.144531 -13.625 5.59375 -14.40625 C 7.039062 -15.1875 8.691406 -15.578125 10.546875 -15.578125 C 12.085938 -15.578125 13.425781 -15.289062 14.5625 -14.71875 C 15.707031 -14.15625 16.585938 -13.363281 17.203125 -12.34375 C 17.828125 -11.332031 18.140625 -10.171875 18.140625 -8.859375 C 18.140625 -7.117188 17.734375 -5.546875 16.921875 -4.140625 C 16.117188 -2.742188 14.992188 -1.648438 13.546875 -0.859375 C 12.097656 -0.078125 10.445312 0.3125 8.59375 0.3125 Z M 8.96875 -3.28125 C 9.925781 -3.28125 10.769531 -3.519531 11.5 -4 C 12.226562 -4.476562 12.789062 -5.117188 13.1875 -5.921875 C 13.582031 -6.734375 13.78125 -7.625 13.78125 -8.59375 C 13.78125 -9.632812 13.460938 -10.460938 12.828125 -11.078125 C 12.191406 -11.691406 11.304688 -12 10.171875 -12 C 9.210938 -12 8.367188 -11.757812 7.640625 -11.28125 C 6.910156 -10.800781 6.347656 -10.15625 5.953125 -9.34375 C 5.566406 -8.539062 5.375 -7.648438 5.375 -6.671875 C 5.375 -5.640625 5.6875 -4.816406 6.3125 -4.203125 C 6.945312 -3.585938 7.832031 -3.28125 8.96875 -3.28125 Z M 8.96875 -3.28125 "/></g></g></g><g fill="#000000" fill-opacity="1"><g transform="translate(183.127152, 232.169437)"><g><path d="M 9.90625 -12.03125 C 11.207031 -12.03125 12.242188 -11.679688 13.015625 -10.984375 C 13.796875 -10.296875 14.1875 -9.304688 14.1875 -8.015625 C 14.1875 -7.535156 14.132812 -7.046875 14.03125 -6.546875 L 12.71875 0 L 8.578125 0 L 9.796875 -6.15625 C 9.859375 -6.40625 9.890625 -6.664062 9.890625 -6.9375 C 9.890625 -7.988281 9.34375 -8.515625 8.25 -8.515625 C 7.519531 -8.515625 6.921875 -8.289062 6.453125 -7.84375 C 5.992188 -7.40625 5.671875 -6.738281 5.484375 -5.84375 L 4.296875 0 L 0.15625 0 L 2.515625 -11.828125 L 6.4375 -11.828125 L 6.203125 -10.609375 C 6.710938 -11.085938 7.285156 -11.441406 7.921875 -11.671875 C 8.566406 -11.910156 9.226562 -12.03125 9.90625 -12.03125 Z M 9.90625 -12.03125 "/></g></g></g><g fill="#000000" fill-opacity="1"><g transform="translate(198.314251, 232.169437)"><g><path d="M 3.390625 -16.203125 L 7.53125 -16.203125 L 4.296875 0 L 0.15625 0 Z M 3.390625 -16.203125 "/></g></g></g><g fill="#000000" fill-opacity="1"><g transform="translate(205.144081, 232.169437)"><g><path d="M 2.515625 -11.828125 L 6.640625 -11.828125 L 4.28125 0 L 0.15625 0 Z M 5.15625 -13.140625 C 4.4375 -13.140625 3.859375 -13.332031 3.421875 -13.71875 C 2.984375 -14.113281 2.765625 -14.601562 2.765625 -15.1875 C 2.765625 -15.875 3.007812 -16.4375 3.5 -16.875 C 3.988281 -17.320312 4.632812 -17.546875 5.4375 -17.546875 C 6.164062 -17.546875 6.742188 -17.359375 7.171875 -16.984375 C 7.609375 -16.617188 7.828125 -16.144531 7.828125 -15.5625 C 7.828125 -14.851562 7.578125 -14.269531 7.078125 -13.8125 C 6.585938 -13.363281 5.945312 -13.140625 5.15625 -13.140625 Z M 5.15625 -13.140625 "/></g></g></g><g fill="#000000" fill-opacity="1"><g transform="translate(211.952092, 232.169437)"><g><path d="M 9.90625 -12.03125 C 11.207031 -12.03125 12.242188 -11.679688 13.015625 -10.984375 C 13.796875 -10.296875 14.1875 -9.304688 14.1875 -8.015625 C 14.1875 -7.535156 14.132812 -7.046875 14.03125 -6.546875 L 12.71875 0 L 8.578125 0 L 9.796875 -6.15625 C 9.859375 -6.40625 9.890625 -6.664062 9.890625 -6.9375 C 9.890625 -7.988281 9.34375 -8.515625 8.25 -8.515625 C 7.519531 -8.515625 6.921875 -8.289062 6.453125 -7.84375 C 5.992188 -7.40625 5.671875 -6.738281 5.484375 -5.84375 L 4.296875 0 L 0.15625 0 L 2.515625 -11.828125 L 6.4375 -11.828125 L 6.203125 -10.609375 C 6.710938 -11.085938 7.285156 -11.441406 7.921875 -11.671875 C 8.566406 -11.910156 9.226562 -12.03125 9.90625 -12.03125 Z M 9.90625 -12.03125 "/></g></g></g><g fill="#000000" fill-opacity="1"><g transform="translate(227.13919, 232.169437)"><g><path d="M 13.53125 -6.828125 C 13.53125 -6.265625 13.453125 -5.617188 13.296875 -4.890625 L 4.609375 -4.890625 C 4.753906 -3.609375 5.648438 -2.96875 7.296875 -2.96875 C 7.816406 -2.96875 8.320312 -3.046875 8.8125 -3.203125 C 9.3125 -3.367188 9.757812 -3.609375 10.15625 -3.921875 L 11.875 -1.328125 C 10.488281 -0.304688 8.804688 0.203125 6.828125 0.203125 C 5.578125 0.203125 4.472656 -0.0195312 3.515625 -0.46875 C 2.566406 -0.914062 1.832031 -1.539062 1.3125 -2.34375 C 0.800781 -3.15625 0.546875 -4.101562 0.546875 -5.1875 C 0.546875 -6.488281 0.847656 -7.660156 1.453125 -8.703125 C 2.054688 -9.742188 2.898438 -10.554688 3.984375 -11.140625 C 5.066406 -11.734375 6.304688 -12.03125 7.703125 -12.03125 C 8.878906 -12.03125 9.90625 -11.8125 10.78125 -11.375 C 11.664062 -10.945312 12.34375 -10.335938 12.8125 -9.546875 C 13.289062 -8.765625 13.53125 -7.859375 13.53125 -6.828125 Z M 7.515625 -9.078125 C 6.835938 -9.078125 6.273438 -8.898438 5.828125 -8.546875 C 5.378906 -8.191406 5.050781 -7.703125 4.84375 -7.078125 L 9.71875 -7.078125 C 9.726562 -7.703125 9.53125 -8.191406 9.125 -8.546875 C 8.71875 -8.898438 8.179688 -9.078125 7.515625 -9.078125 Z M 7.515625 -9.078125 "/></g></g></g><g fill="#000000" fill-opacity="1"><g transform="translate(241.060698, 232.169437)"><g/></g></g><g fill="#000000" fill-opacity="1"><g transform="translate(247.41047, 232.169437)"><g><path d="M 6.046875 0.3125 C 4.773438 0.3125 3.570312 0.160156 2.4375 -0.140625 C 1.300781 -0.453125 0.378906 -0.847656 -0.328125 -1.328125 L 1.375 -4.5625 C 2.144531 -4.0625 2.96875 -3.6875 3.84375 -3.4375 C 4.71875 -3.1875 5.59375 -3.0625 6.46875 -3.0625 C 7.289062 -3.0625 7.929688 -3.179688 8.390625 -3.421875 C 8.847656 -3.660156 9.078125 -3.988281 9.078125 -4.40625 C 9.078125 -4.769531 8.867188 -5.050781 8.453125 -5.25 C 8.046875 -5.457031 7.40625 -5.679688 6.53125 -5.921875 C 5.539062 -6.179688 4.71875 -6.441406 4.0625 -6.703125 C 3.40625 -6.972656 2.835938 -7.382812 2.359375 -7.9375 C 1.890625 -8.5 1.65625 -9.226562 1.65625 -10.125 C 1.65625 -11.21875 1.953125 -12.175781 2.546875 -13 C 3.148438 -13.820312 4.003906 -14.457031 5.109375 -14.90625 C 6.210938 -15.351562 7.507812 -15.578125 9 -15.578125 C 10.082031 -15.578125 11.097656 -15.460938 12.046875 -15.234375 C 12.992188 -15.015625 13.8125 -14.695312 14.5 -14.28125 L 12.921875 -11.0625 C 12.328125 -11.445312 11.664062 -11.734375 10.9375 -11.921875 C 10.21875 -12.117188 9.484375 -12.21875 8.734375 -12.21875 C 7.867188 -12.21875 7.191406 -12.078125 6.703125 -11.796875 C 6.222656 -11.523438 5.984375 -11.171875 5.984375 -10.734375 C 5.984375 -10.359375 6.191406 -10.066406 6.609375 -9.859375 C 7.035156 -9.660156 7.691406 -9.445312 8.578125 -9.21875 C 9.566406 -8.96875 10.382812 -8.707031 11.03125 -8.4375 C 11.675781 -8.175781 12.234375 -7.773438 12.703125 -7.234375 C 13.171875 -6.703125 13.40625 -6 13.40625 -5.125 C 13.40625 -4.050781 13.101562 -3.101562 12.5 -2.28125 C 11.894531 -1.457031 11.035156 -0.816406 9.921875 -0.359375 C 8.804688 0.0859375 7.515625 0.3125 6.046875 0.3125 Z M 6.046875 0.3125 "/></g></g></g><g fill="#000000" fill-opacity="1"><g transform="translate(261.528359, 232.169437)"><g><path d="M 9.90625 -12.03125 C 11.1875 -12.03125 12.21875 -11.679688 13 -10.984375 C 13.789062 -10.285156 14.1875 -9.28125 14.1875 -7.96875 C 14.1875 -7.488281 14.132812 -7.015625 14.03125 -6.546875 L 12.71875 0 L 8.578125 0 L 9.796875 -6.15625 C 9.859375 -6.40625 9.890625 -6.664062 9.890625 -6.9375 C 9.890625 -7.988281 9.34375 -8.515625 8.25 -8.515625 C 7.519531 -8.515625 6.921875 -8.289062 6.453125 -7.84375 C 5.992188 -7.40625 5.671875 -6.738281 5.484375 -5.84375 L 4.296875 0 L 0.15625 0 L 3.390625 -16.203125 L 7.53125 -16.203125 L 6.46875 -10.84375 C 7.46875 -11.632812 8.613281 -12.03125 9.90625 -12.03125 Z M 9.90625 -12.03125 "/></g></g></g><g fill="#000000" fill-opacity="1"><g transform="translate(276.715458, 232.169437)"><g><path d="M 6.71875 0.203125 C 5.46875 0.203125 4.375 -0.0195312 3.4375 -0.46875 C 2.507812 -0.914062 1.789062 -1.546875 1.28125 -2.359375 C 0.78125 -3.171875 0.53125 -4.113281 0.53125 -5.1875 C 0.53125 -6.488281 0.84375 -7.65625 1.46875 -8.6875 C 2.09375 -9.71875 2.957031 -10.53125 4.0625 -11.125 C 5.164062 -11.726562 6.410156 -12.03125 7.796875 -12.03125 C 9.046875 -12.03125 10.132812 -11.804688 11.0625 -11.359375 C 12 -10.921875 12.71875 -10.296875 13.21875 -9.484375 C 13.726562 -8.671875 13.984375 -7.726562 13.984375 -6.65625 C 13.984375 -5.363281 13.671875 -4.195312 13.046875 -3.15625 C 12.421875 -2.113281 11.554688 -1.289062 10.453125 -0.6875 C 9.359375 -0.09375 8.113281 0.203125 6.71875 0.203125 Z M 6.96875 -3.140625 C 7.789062 -3.140625 8.460938 -3.445312 8.984375 -4.0625 C 9.515625 -4.675781 9.78125 -5.46875 9.78125 -6.4375 C 9.78125 -7.132812 9.582031 -7.6875 9.1875 -8.09375 C 8.789062 -8.5 8.242188 -8.703125 7.546875 -8.703125 C 6.722656 -8.703125 6.046875 -8.394531 5.515625 -7.78125 C 4.992188 -7.175781 4.734375 -6.378906 4.734375 -5.390625 C 4.734375 -4.691406 4.929688 -4.140625 5.328125 -3.734375 C 5.722656 -3.335938 6.269531 -3.140625 6.96875 -3.140625 Z M 6.96875 -3.140625 "/></g></g></g><g fill="#000000" fill-opacity="1"><g transform="translate(291.226118, 232.169437)"><g><path d="M 9.625 -12.03125 C 10.5 -12.03125 11.316406 -11.8125 12.078125 -11.375 C 12.847656 -10.945312 13.460938 -10.328125 13.921875 -9.515625 C 14.390625 -8.703125 14.625 -7.75 14.625 -6.65625 C 14.625 -5.363281 14.335938 -4.195312 13.765625 -3.15625 C 13.191406 -2.113281 12.410156 -1.289062 11.421875 -0.6875 C 10.441406 -0.09375 9.367188 0.203125 8.203125 0.203125 C 6.484375 0.203125 5.273438 -0.335938 4.578125 -1.421875 L 3.453125 4.234375 L -0.703125 4.234375 L 2.515625 -11.828125 L 6.4375 -11.828125 L 6.203125 -10.71875 C 7.148438 -11.59375 8.289062 -12.03125 9.625 -12.03125 Z M 7.625 -3.140625 C 8.445312 -3.140625 9.117188 -3.445312 9.640625 -4.0625 C 10.171875 -4.675781 10.4375 -5.46875 10.4375 -6.4375 C 10.4375 -7.132812 10.234375 -7.6875 9.828125 -8.09375 C 9.429688 -8.5 8.882812 -8.703125 8.1875 -8.703125 C 7.351562 -8.703125 6.675781 -8.394531 6.15625 -7.78125 C 5.632812 -7.175781 5.375 -6.378906 5.375 -5.390625 C 5.375 -4.691406 5.570312 -4.140625 5.96875 -3.734375 C 6.363281 -3.335938 6.914062 -3.140625 7.625 -3.140625 Z M 7.625 -3.140625 "/></g></g></g><g fill="#000000" fill-opacity="1"><g transform="translate(251.160691, 211.235405)"><g><path d="M 6.453125 0.234375 C 4.867188 0.234375 3.726562 -0.113281 3.03125 -0.8125 C 2.34375 -1.507812 1.96875 -2.675781 1.90625 -4.3125 C 1.875 -5.375 1.859375 -6.3125 1.859375 -7.125 C 1.859375 -7.945312 1.894531 -8.898438 1.96875 -9.984375 L 4.140625 -9.984375 C 4.097656 -8.972656 4.078125 -7.957031 4.078125 -6.9375 C 4.078125 -5.925781 4.097656 -4.9375 4.140625 -3.96875 C 4.191406 -3.1875 4.390625 -2.617188 4.734375 -2.265625 C 5.078125 -1.910156 5.648438 -1.734375 6.453125 -1.734375 C 7.210938 -1.734375 7.757812 -1.910156 8.09375 -2.265625 C 8.4375 -2.617188 8.628906 -3.1875 8.671875 -3.96875 C 8.710938 -4.613281 8.734375 -5.1875 8.734375 -5.6875 C 8.734375 -6.195312 8.726562 -6.722656 8.71875 -7.265625 C 8.707031 -7.804688 8.691406 -8.4375 8.671875 -9.15625 C 8.648438 -10.03125 8.53125 -10.753906 8.3125 -11.328125 C 8.09375 -11.898438 7.660156 -12.269531 7.015625 -12.4375 L 5.1875 -12.921875 C 3.84375 -13.242188 2.960938 -13.828125 2.546875 -14.671875 C 2.140625 -15.523438 1.910156 -16.75 1.859375 -18.34375 C 1.835938 -19.101562 1.832031 -19.921875 1.84375 -20.796875 C 1.851562 -21.671875 1.875 -22.523438 1.90625 -23.359375 C 1.925781 -24.960938 2.28125 -26.113281 2.96875 -26.8125 C 3.65625 -27.519531 4.816406 -27.875 6.453125 -27.875 C 7.972656 -27.875 9.070312 -27.519531 9.75 -26.8125 C 10.4375 -26.113281 10.8125 -24.960938 10.875 -23.359375 C 10.875 -22.710938 10.875 -21.921875 10.875 -20.984375 C 10.875 -20.054688 10.863281 -19.082031 10.84375 -18.0625 L 8.640625 -18.0625 C 8.660156 -18.988281 8.671875 -19.921875 8.671875 -20.859375 C 8.671875 -21.804688 8.660156 -22.753906 8.640625 -23.703125 C 8.585938 -25.171875 7.847656 -25.90625 6.421875 -25.90625 C 5.640625 -25.90625 5.082031 -25.726562 4.75 -25.375 C 4.414062 -25.019531 4.226562 -24.460938 4.1875 -23.703125 C 4.132812 -22.804688 4.109375 -21.910156 4.109375 -21.015625 C 4.109375 -20.128906 4.132812 -19.238281 4.1875 -18.34375 C 4.207031 -17.3125 4.328125 -16.539062 4.546875 -16.03125 C 4.765625 -15.519531 5.21875 -15.175781 5.90625 -15 L 7.59375 -14.578125 C 8.957031 -14.253906 9.851562 -13.65625 10.28125 -12.78125 C 10.707031 -11.90625 10.941406 -10.695312 10.984375 -9.15625 C 11.003906 -8.4375 11.015625 -7.835938 11.015625 -7.359375 C 11.015625 -6.878906 11.007812 -6.40625 11 -5.9375 C 10.988281 -5.476562 10.984375 -4.9375 10.984375 -4.3125 C 10.910156 -2.675781 10.53125 -1.507812 9.84375 -0.8125 C 9.15625 -0.113281 8.023438 0.234375 6.453125 0.234375 Z M 6.453125 0.234375 "/></g></g></g><g fill="#000000" fill-opacity="1"><g transform="translate(263.973255, 211.235405)"><g><path d="M 7.25 0.234375 C 5.644531 0.234375 4.539062 -0.09375 3.9375 -0.75 C 3.34375 -1.40625 3.03125 -2.476562 3 -3.96875 L 3 -18.890625 L 1.59375 -18.890625 L 1.59375 -20.734375 L 3.046875 -20.734375 L 3.046875 -26.59375 L 5.390625 -26.59375 L 5.359375 -20.734375 L 8.421875 -20.734375 L 8.421875 -18.890625 L 5.3125 -18.890625 L 5.3125 -3.765625 C 5.3125 -2.910156 5.425781 -2.332031 5.65625 -2.03125 C 5.894531 -1.738281 6.441406 -1.59375 7.296875 -1.59375 C 7.609375 -1.59375 7.867188 -1.597656 8.078125 -1.609375 C 8.285156 -1.617188 8.519531 -1.644531 8.78125 -1.6875 L 8.78125 0.0625 C 8.34375 0.175781 7.832031 0.234375 7.25 0.234375 Z M 7.25 0.234375 "/></g></g></g><g fill="#000000" fill-opacity="1"><g transform="translate(273.781265, 211.235405)"><g><path d="M 6.421875 0.234375 C 4.804688 0.234375 3.671875 -0.109375 3.015625 -0.796875 C 2.359375 -1.484375 2 -2.632812 1.9375 -4.25 C 1.882812 -5.488281 1.851562 -6.8125 1.84375 -8.21875 C 1.832031 -9.625 1.832031 -11.035156 1.84375 -12.453125 C 1.851562 -13.867188 1.882812 -15.210938 1.9375 -16.484375 C 2 -18.085938 2.359375 -19.234375 3.015625 -19.921875 C 3.671875 -20.617188 4.804688 -20.96875 6.421875 -20.96875 C 8.035156 -20.96875 9.164062 -20.613281 9.8125 -19.90625 C 10.457031 -19.207031 10.8125 -18.066406 10.875 -16.484375 C 10.945312 -14.617188 10.984375 -12.582031 10.984375 -10.375 C 10.984375 -8.175781 10.945312 -6.132812 10.875 -4.25 C 10.8125 -2.65625 10.457031 -1.507812 9.8125 -0.8125 C 9.164062 -0.113281 8.035156 0.234375 6.421875 0.234375 Z M 6.421875 -1.59375 C 7.179688 -1.59375 7.726562 -1.753906 8.0625 -2.078125 C 8.394531 -2.398438 8.578125 -2.960938 8.609375 -3.765625 C 8.648438 -5.398438 8.675781 -6.90625 8.6875 -8.28125 C 8.695312 -9.664062 8.695312 -11.050781 8.6875 -12.4375 C 8.675781 -13.820312 8.648438 -15.316406 8.609375 -16.921875 C 8.578125 -17.753906 8.398438 -18.332031 8.078125 -18.65625 C 7.753906 -18.976562 7.203125 -19.140625 6.421875 -19.140625 C 5.640625 -19.140625 5.082031 -18.976562 4.75 -18.65625 C 4.414062 -18.332031 4.238281 -17.753906 4.21875 -16.921875 C 4.164062 -15.316406 4.128906 -13.820312 4.109375 -12.4375 C 4.085938 -11.050781 4.085938 -9.664062 4.109375 -8.28125 C 4.128906 -6.90625 4.164062 -5.398438 4.21875 -3.765625 C 4.238281 -2.960938 4.414062 -2.398438 4.75 -2.078125 C 5.082031 -1.753906 5.640625 -1.59375 6.421875 -1.59375 Z M 6.421875 -1.59375 "/></g></g></g><g fill="#000000" fill-opacity="1"><g transform="translate(286.593829, 211.235405)"><g><path d="M 1.828125 0 L 1.828125 -20.734375 L 4.109375 -20.734375 L 4.109375 -18.765625 L 4.59375 -18.765625 C 4.78125 -19.523438 5.085938 -20.046875 5.515625 -20.328125 C 5.941406 -20.617188 6.507812 -20.765625 7.21875 -20.765625 C 7.65625 -20.765625 8.015625 -20.753906 8.296875 -20.734375 L 8.296875 -18.890625 L 7.25 -18.890625 C 6.257812 -18.890625 5.535156 -18.710938 5.078125 -18.359375 C 4.617188 -18.003906 4.296875 -17.421875 4.109375 -16.609375 L 4.109375 0 Z M 1.828125 0 "/></g></g></g><g fill="#000000" fill-opacity="1"><g transform="translate(295.572989, 211.235405)"><g><path d="M 8.421875 -7.109375 L 10.640625 -7.109375 C 10.660156 -6.585938 10.675781 -6.039062 10.6875 -5.46875 C 10.695312 -4.90625 10.691406 -4.394531 10.671875 -3.9375 C 10.609375 -2.46875 10.257812 -1.40625 9.625 -0.75 C 8.988281 -0.09375 7.910156 0.234375 6.390625 0.234375 C 4.828125 0.234375 3.695312 -0.09375 3 -0.75 C 2.3125 -1.40625 1.945312 -2.46875 1.90625 -3.9375 C 1.851562 -5.175781 1.820312 -6.550781 1.8125 -8.0625 C 1.800781 -9.570312 1.800781 -11.078125 1.8125 -12.578125 C 1.820312 -14.078125 1.851562 -15.457031 1.90625 -16.71875 C 1.96875 -18.238281 2.34375 -19.328125 3.03125 -19.984375 C 3.726562 -20.640625 4.835938 -20.96875 6.359375 -20.96875 C 7.828125 -20.96875 8.894531 -20.644531 9.5625 -20 C 10.238281 -19.351562 10.609375 -18.285156 10.671875 -16.796875 C 10.691406 -16.265625 10.707031 -15.367188 10.71875 -14.109375 C 10.738281 -12.859375 10.710938 -11.445312 10.640625 -9.875 L 4.140625 -9.875 C 4.140625 -8.90625 4.144531 -7.929688 4.15625 -6.953125 C 4.175781 -5.984375 4.195312 -4.921875 4.21875 -3.765625 C 4.21875 -2.929688 4.382812 -2.359375 4.71875 -2.046875 C 5.050781 -1.742188 5.585938 -1.59375 6.328125 -1.59375 C 7.054688 -1.59375 7.578125 -1.742188 7.890625 -2.046875 C 8.203125 -2.359375 8.378906 -2.929688 8.421875 -3.765625 C 8.453125 -4.617188 8.453125 -5.734375 8.421875 -7.109375 Z M 6.359375 -19.140625 C 5.597656 -19.140625 5.050781 -18.972656 4.71875 -18.640625 C 4.382812 -18.304688 4.21875 -17.757812 4.21875 -17 C 4.195312 -15.988281 4.175781 -15.054688 4.15625 -14.203125 C 4.144531 -13.347656 4.140625 -12.503906 4.140625 -11.671875 L 8.46875 -11.671875 C 8.46875 -12.898438 8.46875 -13.976562 8.46875 -14.90625 C 8.46875 -15.84375 8.453125 -16.539062 8.421875 -17 C 8.378906 -17.757812 8.195312 -18.304688 7.875 -18.640625 C 7.550781 -18.972656 7.046875 -19.140625 6.359375 -19.140625 Z M 6.359375 -19.140625 "/></g></g></g></svg>